<mxfile host="app.diagrams.net" modified="2021-01-31T07:51:57.707Z" agent="5.0 (Macintosh; Intel Mac OS X 11_1_0) AppleWebKit/537.36 (KHTML, like Gecko) Chrome/88.0.4324.96 Safari/537.36" etag="5hZqCgxuz2BoeLy7uoU8" version="14.2.9" type="github">
  <diagram id="s8Xt_1Xz3OuOSgq4dSpl" name="第 1 页">
    <mxGraphModel dx="1070" dy="1062" grid="0" gridSize="10" guides="1" tooltips="1" connect="1" arrows="1" fold="1" page="0" pageScale="1" pageWidth="827" pageHeight="1169" math="0" shadow="0">
      <root>
        <mxCell id="0" />
        <mxCell id="1" parent="0" />
        <mxCell id="GW_hWzKDqC_djEn002Vv-2" value="1" style="rounded=0;whiteSpace=wrap;html=1;strokeWidth=2;fontSize=18;" vertex="1" parent="1">
          <mxGeometry x="107" y="230" width="50" height="50" as="geometry" />
        </mxCell>
        <mxCell id="GW_hWzKDqC_djEn002Vv-3" value="2" style="rounded=0;whiteSpace=wrap;html=1;strokeWidth=2;fontSize=18;" vertex="1" parent="1">
          <mxGeometry x="157" y="230" width="50" height="50" as="geometry" />
        </mxCell>
        <mxCell id="GW_hWzKDqC_djEn002Vv-5" value="unshift" style="curved=1;endArrow=classic;html=1;fontSize=18;strokeWidth=2;labelBackgroundColor=none;strokeColor=#00994D;fontColor=#00994D;" edge="1" parent="1">
          <mxGeometry x="-0.4527" y="16" width="50" height="50" relative="1" as="geometry">
            <mxPoint x="-50" y="191" as="sourcePoint" />
            <mxPoint x="31" y="230" as="targetPoint" />
            <Array as="points">
              <mxPoint x="6" y="191" />
            </Array>
            <mxPoint as="offset" />
          </mxGeometry>
        </mxCell>
        <mxCell id="GW_hWzKDqC_djEn002Vv-6" value="-1" style="rounded=0;whiteSpace=wrap;html=1;strokeWidth=2;fontSize=18;dashed=1;" vertex="1" parent="1">
          <mxGeometry x="7" y="230" width="50" height="50" as="geometry" />
        </mxCell>
        <mxCell id="GW_hWzKDqC_djEn002Vv-1" value="0" style="rounded=0;whiteSpace=wrap;html=1;strokeWidth=2;fontSize=18;" vertex="1" parent="1">
          <mxGeometry x="57" y="230" width="50" height="50" as="geometry" />
        </mxCell>
        <mxCell id="GW_hWzKDqC_djEn002Vv-7" value="shift" style="curved=1;endArrow=classic;html=1;fontSize=18;strokeWidth=2;labelBackgroundColor=none;exitX=0.5;exitY=1;exitDx=0;exitDy=0;strokeColor=#FF8000;fontColor=#FF8000;" edge="1" parent="1" source="GW_hWzKDqC_djEn002Vv-1">
          <mxGeometry x="0.3353" y="14" width="50" height="50" relative="1" as="geometry">
            <mxPoint x="78" y="289" as="sourcePoint" />
            <mxPoint x="-3" y="328" as="targetPoint" />
            <Array as="points">
              <mxPoint x="70" y="316" />
            </Array>
            <mxPoint as="offset" />
          </mxGeometry>
        </mxCell>
        <mxCell id="GW_hWzKDqC_djEn002Vv-8" value="Array" style="text;html=1;strokeColor=none;fillColor=none;align=center;verticalAlign=middle;whiteSpace=wrap;rounded=0;dashed=1;fontSize=18;" vertex="1" parent="1">
          <mxGeometry x="134" y="203" width="40" height="20" as="geometry" />
        </mxCell>
        <mxCell id="GW_hWzKDqC_djEn002Vv-9" value="4" style="rounded=0;whiteSpace=wrap;html=1;strokeWidth=2;fontSize=18;dashed=1;" vertex="1" parent="1">
          <mxGeometry x="257" y="230" width="50" height="50" as="geometry" />
        </mxCell>
        <mxCell id="GW_hWzKDqC_djEn002Vv-4" value="3" style="rounded=0;whiteSpace=wrap;html=1;strokeWidth=2;fontSize=18;" vertex="1" parent="1">
          <mxGeometry x="207" y="230" width="50" height="50" as="geometry" />
        </mxCell>
        <mxCell id="GW_hWzKDqC_djEn002Vv-10" value="push" style="curved=1;endArrow=none;html=1;fontSize=18;strokeWidth=2;labelBackgroundColor=none;strokeColor=#00994D;fontColor=#00994D;endFill=0;startArrow=classic;startFill=1;" edge="1" parent="1">
          <mxGeometry x="0.5157" y="14" width="50" height="50" relative="1" as="geometry">
            <mxPoint x="282" y="230" as="sourcePoint" />
            <mxPoint x="365" y="191" as="targetPoint" />
            <Array as="points">
              <mxPoint x="298" y="191" />
            </Array>
            <mxPoint as="offset" />
          </mxGeometry>
        </mxCell>
        <mxCell id="GW_hWzKDqC_djEn002Vv-11" value="pop" style="curved=1;endArrow=classic;html=1;fontSize=18;strokeWidth=2;labelBackgroundColor=none;exitX=0.5;exitY=1;exitDx=0;exitDy=0;strokeColor=#FF8000;fontColor=#FF8000;" edge="1" parent="1" source="GW_hWzKDqC_djEn002Vv-4">
          <mxGeometry x="0.0625" y="-12" width="50" height="50" relative="1" as="geometry">
            <mxPoint x="224.5" y="290" as="sourcePoint" />
            <mxPoint x="314" y="326" as="targetPoint" />
            <Array as="points">
              <mxPoint x="232" y="326" />
            </Array>
            <mxPoint as="offset" />
          </mxGeometry>
        </mxCell>
      </root>
    </mxGraphModel>
  </diagram>
</mxfile>
